PathFileType	4	(X/Y/Z)	SUBJ63_2_walk_RCNL2025.trc
DataRate	CameraRate	NumFrames	NumMarkers	Units	OrigDataRate	OrigDataStartFrame	OrigNumFrames
100	100	5	25	mm	100	1	270
Frame#	Time	R_Shoulder			L_Shoulder			C7			J_Notch			R_Elbow			L_Elbow			R_Wrist			L_Wrist			R_Asis			L_Asis			Sacral			Thoracic			Sternum			R_Thigh_Lateral			R_Knee_Lateral			R_Shank_Lateral			R_Ankle_Lateral			R_Heel			R_Toe			L_Thigh_Lateral			L_Knee_Lateral			L_Shank_Lateral			L_Ankle_Lateral			L_Heel			L_Toe		
		X1	Y1	Z1	X2	Y2	Z2	X3	Y3	Z3	X4	Y4	Z4	X5	Y5	Z5	X6	Y6	Z6	X7	Y7	Z7	X8	Y8	Z8	X9	Y9	Z9	X10	Y10	Z10	X11	Y11	Z11	X12	Y12	Z12	X13	Y13	Z13	X14	Y14	Z14	X15	Y15	Z15	X16	Y16	Z16	X17	Y17	Z17	X18	Y18	Z18	X19	Y19	Z19	X20	Y20	Z20	X21	Y21	Z21	X22	Y22	Z22	X23	Y23	Z23	X24	Y24	Z24	X25	Y25	Z25
1	0.00000000	-1556.110352	1299.585938	91.602783	-1601.999268	1291.524170	-242.003143	-1651.449951	1354.478394	-72.128838	-1539.780151	1242.934937	-77.781792	-1607.823486	1012.286011	204.840942	-1692.601929	1008.590210	-333.417175	-1525.322754	799.146606	234.662811	-1651.261353	801.294403	-412.846176	-1567.394043	838.365540	58.992455	-1535.479980	841.752380	-188.293594	-1771.859741	852.528870	-92.348228	-1748.497437	1178.113281	-62.448933	-1510.443970	1065.498169	-77.762764	-1687.765747	500.015442	85.880402	-1700.255371	445.782318	34.217636	-1751.964600	265.931488	67.360847	-1783.424072	62.952881	-22.868488	-1816.704468	63.192699	-76.054131	-1668.332153	44.633476	-11.538724	-1471.129639	493.403137	-280.689880	-1471.247314	464.249146	-217.136353	-1491.091553	276.297058	-256.630524	-1514.568481	78.634262	-185.302002	-1556.077759	67.573410	-123.102036	-1401.935059	61.907578	-193.389984
2	0.01000000	-1547.245361	1298.490723	91.487732	-1594.725464	1289.921021	-242.292770	-1643.149536	1353.102661	-72.115387	-1531.932373	1241.368286	-78.181732	-1597.452393	1011.651367	205.626068	-1686.967407	1007.640625	-333.172607	-1513.688965	799.052246	235.419426	-1648.661926	800.793610	-414.586624	-1558.986938	837.046326	59.613617	-1526.076904	839.817871	-188.005707	-1762.831177	851.218018	-92.612854	-1740.109009	1176.728149	-62.045937	-1498.952393	1064.779175	-76.758148	-1683.532471	500.119751	85.901207	-1696.529175	445.969757	34.149265	-1750.359863	266.595367	66.868286	-1782.930908	63.656044	-23.517677	-1815.550171	63.963562	-76.310219	-1668.052124	44.670624	-11.395649	-1463.771240	491.215179	-280.234619	-1462.849121	462.492493	-216.160553	-1474.533936	274.555420	-255.381805	-1488.396606	76.705353	-183.478745	-1529.415527	63.762283	-121.193718	-1375.327881	65.026695	-191.570328
3	0.02000000	-1536.416992	1296.876831	91.331711	-1585.378296	1287.819092	-242.649521	-1632.694092	1351.336426	-72.163040	-1521.907104	1239.304565	-78.671066	-1584.468018	1010.835693	206.551727	-1679.716797	1006.367310	-332.871307	-1499.150085	798.916016	236.415154	-1645.187988	800.114349	-416.695572	-1548.330078	835.389221	60.357018	-1514.172607	837.334290	-187.690369	-1751.418335	849.523010	-92.978966	-1729.526367	1174.941650	-61.639805	-1484.322144	1063.755737	-75.429665	-1677.976562	500.240295	85.951653	-1691.545898	446.199646	34.089977	-1748.077759	267.477081	66.276337	-1782.302979	64.658340	-24.268316	-1814.115723	65.092720	-76.584343	-1667.711670	44.722973	-11.222658	-1454.455078	488.104065	-279.665222	-1452.295288	460.201172	-215.008820	-1454.004272	272.619781	-253.878433	-1456.398315	74.859558	-181.297440	-1497.008789	59.738415	-119.213768	-1342.917480	69.211647	-189.055130
4	0.03000000	-1524.258911	1294.700806	91.145348	-1574.216919	1285.270508	-243.053177	-1620.492554	1349.242065	-72.306396	-1510.034668	1236.797363	-79.221130	-1569.437378	1009.872131	207.549103	-1671.048584	1004.790344	-332.531921	-1482.349976	798.744781	237.624847	-1640.859558	799.268951	-419.045135	-1535.823853	833.480591	61.186146	-1500.215576	834.418396	-187.386002	-1738.055054	847.500183	-93.449577	-1717.155884	1172.814575	-61.303268	-1467.395386	1062.353516	-73.911194	-1671.195557	500.367432	86.048706	-1685.348877	446.455261	34.064159	-1745.072021	268.568848	65.647621	-1781.566284	65.988983	-25.023424	-1812.509033	66.656357	-76.845627	-1667.331543	44.789417	-11.022552	-1443.481201	484.088562	-278.990509	-1439.979614	457.462463	-213.745804	-1430.497070	270.690796	-252.200958	-1420.430908	73.395699	-178.895447	-1460.840088	56.002506	-117.448135	-1306.634277	74.329102	-185.868759
5	0.04000000	-1511.482666	1291.964844	90.942329	-1561.568237	1282.364014	-243.478378	-1607.031982	1346.908081	-72.578957	-1496.746704	1233.946289	-79.805176	-1553.040649	1008.807861	208.544693	-1661.216553	1002.956177	-332.182770	-1464.056458	798.558228	239.003807	-1635.722534	798.280579	-421.491074	-1521.961182	831.433655	62.063942	-1484.763428	831.257568	-187.130676	-1723.268921	845.230530	-94.022308	-1703.484497	1170.434814	-61.104858	-1449.589722	1060.444946	-72.508728	-1663.339111	500.497803	86.219299	-1678.037476	446.717651	34.111275	-1741.336304	269.862213	65.081268	-1780.747925	67.668297	-25.655504	-1810.873047	68.744843	-77.057236	-1666.931641	44.867817	-10.787551	-1431.178467	479.332947	-278.219177	-1426.327148	454.431946	-212.420654	-1405.182739	268.951141	-250.426956	-1382.656860	72.501305	-176.408630	-1423.179932	52.960762	-116.145012	-1268.691650	80.075432	-182.117325
